HIERARCHY
ROOT Hips
{
	OFFSET 0.000000 88.474243 0.000000
	CHANNELS 6 Xposition Yposition Zposition Zrotation Yrotation Xrotation 
	JOINT Hips_Spine
	{
		OFFSET 0.000000 0.000000 0.000000
		CHANNELS 3 Zrotation Yrotation Xrotation
		JOINT Spine
		{
			OFFSET 0.005100 8.711998 -0.691000
			CHANNELS 3 Zrotation Yrotation Xrotation
			JOINT Spine1
			{
				OFFSET -0.009200 8.660301 -1.275000
				CHANNELS 3 Zrotation Yrotation Xrotation
				JOINT Spine2
				{
					OFFSET 0.006300 9.852501 -1.857000
					CHANNELS 3 Zrotation Yrotation Xrotation
					JOINT Spine2_Neck
					{
						OFFSET 0.000000 0.000000 0.000000
						CHANNELS 3 Zrotation Yrotation Xrotation
						JOINT Neck
						{
							OFFSET 0.016300 11.420799 -0.263300
							CHANNELS 3 Zrotation Yrotation Xrotation
							End Site #name: Head
							{
								OFFSET -0.019200 9.262405 2.362500
							}
						}
					}
					JOINT Spine2_LeftShoulder
					{
						OFFSET 0.000000 0.000000 0.000000
						CHANNELS 3 Zrotation Yrotation Xrotation
						JOINT LeftShoulder
						{
							OFFSET 5.616900 6.732201 -0.345700
							CHANNELS 3 Zrotation Yrotation Xrotation
							JOINT LeftArm
							{
								OFFSET 10.664888 -0.183372 -2.440700
								CHANNELS 3 Zrotation Yrotation Xrotation
								JOINT LeftForeArm
								{
									OFFSET 27.459126 0.000000 0.000000
									CHANNELS 3 Zrotation Yrotation Xrotation
									End Site #name: LeftHand
									{
										OFFSET 21.306858 0.000000 0.000000
									}
								}
							}
						}
					}
					JOINT Spine2_RightShoulder
					{
						OFFSET 0.000000 0.000000 0.000000
						CHANNELS 3 Zrotation Yrotation Xrotation
						JOINT RightShoulder
						{
							OFFSET -5.580300 6.737503 -0.344400
							CHANNELS 3 Zrotation Yrotation Xrotation
							JOINT RightArm
							{
								OFFSET -10.679335 -0.188484 -2.383900
								CHANNELS 3 Zrotation Yrotation Xrotation
								JOINT RightForeArm
								{
									OFFSET -27.503529 0.000000 0.000000
									CHANNELS 3 Zrotation Yrotation Xrotation
									End Site #name: RightHand
									{
										OFFSET -21.306808 0.000000 0.000000
									}
								}
							}
						}
					}
				}
			}
		}
	}
	JOINT Hips_LeftUpLeg
	{
		OFFSET 0.000000 0.000000 0.000000
		CHANNELS 3 Zrotation Yrotation Xrotation
		JOINT LeftUpLeg
		{
			OFFSET 6.857700 -6.739601 0.312100
			CHANNELS 3 Zrotation Yrotation Xrotation
			JOINT LeftLeg
			{
				OFFSET -0.367590 -34.731552 -4.572400
				CHANNELS 3 Zrotation Yrotation Xrotation
				End Site #name: LeftFoot
				{
					OFFSET 0.367590 -34.656704 -6.067400
				}
			}
		}
	}
	JOINT Hips_RightUpLeg
	{
		OFFSET 0.000000 0.000000 0.000000
		CHANNELS 3 Zrotation Yrotation Xrotation
		JOINT RightUpLeg
		{
			OFFSET -6.876100 -6.733299 0.301000
			CHANNELS 3 Zrotation Yrotation Xrotation
			JOINT RightLeg
			{
				OFFSET 0.347353 -34.795158 -4.515900
				CHANNELS 3 Zrotation Yrotation Xrotation
				End Site #name: RightFoot
				{
					OFFSET -0.347353 -34.589367 -6.070300
				}
			}
		}
	}
}
MOTION
Frames: 10
Frame Time: 0.041667
5.469823 0.924011 1.427532 -4.134251 -8.481786 -0.897312 -0.000000 -0.000000 -0.000000 -0.285647 0.578886 4.367645 -0.790501 1.265307 8.477375 0.000000 0.000000 0.000000 -0.824674 1.237588 8.404745 1.269478 -2.328144 3.085687 -0.786737 1.271451 8.547637 3.026256 1.194298 0.414197 -74.807587 -11.233082 26.454152 -178.874382 -86.692169 178.617769 -0.805249 1.270257 8.441476 -3.926263 -1.436848 1.162959 79.264789 -9.119261 3.981194 -175.020166 83.865794 -175.393621 -0.000000 -0.000000 0.000000 0.711571 0.965999 -19.648173 -0.856211 0.563537 27.905987 0.000000 0.000000 -0.000000 -8.280762 0.392784 -15.422822 0.099309 -0.685490 18.529529 
5.636367 0.974964 1.458210 -4.080925 -8.668146 -0.891054 -0.000000 -0.000000 0.000000 -0.277956 0.589572 4.326089 -0.766938 1.253816 8.406961 0.000000 0.000000 0.000000 -0.823597 1.226300 8.330136 1.024608 -2.656171 3.191037 -0.767163 1.262799 8.479744 2.986435 1.177548 0.404619 -74.874165 -10.792622 26.242260 -178.961854 -86.707585 178.712777 -0.787694 1.261725 8.371453 -3.873649 -1.411510 1.149710 79.400562 -9.282425 3.758036 -174.867060 83.908263 -175.250336 -0.000000 -0.000000 0.000000 0.522496 0.920554 -19.510544 -0.842268 0.557352 27.575642 0.000000 0.000000 -0.000000 -8.433960 0.645373 -15.264644 0.100716 -0.702371 18.075530 
5.787856 1.026516 1.485783 -4.064797 -8.860757 -0.908188 -0.000000 -0.000000 0.000000 -0.270179 0.594960 4.290357 -0.742847 1.243554 8.334266 0.000000 0.000000 0.000000 -0.810207 1.220582 8.248002 0.924433 -2.842100 3.241646 -0.745096 1.254826 8.407719 2.963339 1.162895 0.395686 -74.954324 -10.379528 26.037929 -179.168197 -86.691934 178.922979 -0.771845 1.259731 8.302729 -3.832787 -1.351813 1.147076 79.508352 -9.426768 3.576417 -174.743241 83.945717 -175.136239 -0.000000 -0.000000 0.000000 0.360875 0.889531 -19.354765 -0.828961 0.557770 27.271195 0.000000 0.000000 -0.000000 -8.580028 0.838161 -15.124543 0.105326 -0.738177 17.700896 
5.926332 1.076153 1.506698 -4.071975 -9.061162 -0.945785 -0.000000 -0.000000 0.000000 -0.263137 0.594321 4.262285 -0.720269 1.237149 8.264351 0.000000 0.000000 0.000000 -0.795386 1.214275 8.153872 0.850614 -2.944129 3.266864 -0.724751 1.248908 8.338100 2.950330 1.142859 0.393298 -75.022111 -10.020495 25.850153 -179.412319 -86.709406 179.167247 -0.757042 1.262636 8.239042 -3.789050 -1.278275 1.142050 79.601702 -9.531193 3.455614 -174.622879 83.984892 -175.027657 -0.000000 -0.000000 0.000000 0.215019 0.880608 -19.200936 -0.812249 0.568248 26.992402 -0.000000 0.000000 -0.000000 -8.704377 0.962145 -15.027845 0.107820 -0.770593 17.431202 
6.052362 1.121813 1.517291 -4.095132 -9.275117 -0.980228 -0.000000 -0.000000 0.000000 -0.257852 0.585973 4.249149 -0.699297 1.234486 8.202081 0.000000 0.000000 0.000000 -0.779177 1.211904 8.070283 0.794530 -3.020308 3.266660 -0.707989 1.245441 8.276400 2.953286 1.134462 0.396595 -75.106587 -9.686995 25.663576 -179.693857 -86.704339 179.450286 -0.742649 1.269516 8.181949 -3.756112 -1.216455 1.135266 79.669107 -9.596072 3.390985 -174.518793 84.006530 -174.936860 -0.000000 -0.000000 0.000000 0.081334 0.877753 -19.046685 -0.793221 0.582783 26.747448 -0.000000 0.000000 -0.000000 -8.821812 1.026307 -14.979244 0.106134 -0.796054 17.221973 
6.159856 1.160404 1.518368 -4.106521 -9.490038 -1.011533 -0.000000 -0.000000 0.000000 -0.258390 0.577359 4.226004 -0.680046 1.235446 8.146820 0.000000 0.000000 0.000000 -0.761244 1.212043 8.003274 0.757946 -3.077080 3.259447 -0.694012 1.244089 8.222633 2.968154 1.133187 0.402996 -75.162142 -9.407106 25.493546 179.956983 -86.694255 179.800771 -0.729161 1.277146 8.136275 -3.723165 -1.166321 1.126777 79.687791 -9.644133 3.369442 -174.461926 84.002635 -174.890457 -0.000000 -0.000000 0.000000 -0.047178 0.877468 -18.909754 -0.775944 0.594018 26.527453 -0.000000 0.000000 -0.000000 -8.917727 1.056851 -14.972005 0.087010 -0.809860 17.109563 
6.242321 1.190119 1.511022 -4.111491 -9.668961 -1.037902 -0.000000 -0.000000 0.000000 -0.260325 0.567683 4.206975 -0.662166 1.239694 8.103707 0.000000 0.000000 0.000000 -0.740985 1.213525 7.952907 0.744436 -3.109765 3.239370 -0.682617 1.245103 8.179039 2.991709 1.138907 0.411536 -75.215410 -9.170155 25.331724 179.528319 -86.683911 -179.771546 -0.715496 1.284794 8.099581 -3.692995 -1.133900 1.111118 79.657448 -9.660733 3.390320 -174.473618 83.962456 -174.906538 -0.000000 -0.000000 0.000000 -0.175481 0.873974 -18.792699 -0.764171 0.599381 26.346013 -0.000000 0.000000 -0.000000 -9.010935 1.053069 -14.981710 0.061939 -0.815691 17.087513 
6.293624 1.209086 1.497220 -4.113113 -9.805066 -1.063914 -0.000000 -0.000000 0.000000 -0.262659 0.557724 4.194915 -0.647288 1.244364 8.064368 0.000000 0.000000 0.000000 -0.720658 1.217370 7.913874 0.753676 -3.116038 3.210275 -0.672705 1.247278 8.142126 3.017997 1.145945 0.421286 -75.251836 -8.971688 25.193988 179.007070 -86.678422 -179.250580 -0.702405 1.292486 8.071466 -3.666372 -1.117736 1.095821 79.593191 -9.655399 3.445664 -174.554381 83.888948 -174.983113 -0.000000 -0.000000 0.000000 -0.289096 0.888819 -18.717342 -0.763079 0.598954 26.246549 -0.000000 0.000000 -0.000000 -9.103373 1.025124 -14.998886 0.041601 -0.817342 17.105050 
6.306207 1.218384 1.482064 -4.111106 -9.923164 -1.085813 -0.000000 -0.000000 0.000000 -0.262936 0.550942 4.193513 -0.634453 1.250738 8.034564 0.000000 0.000000 0.000000 -0.699304 1.224130 7.888848 0.787157 -3.093449 3.175037 -0.664862 1.251166 8.110476 3.053682 1.158857 0.430964 -75.278981 -8.810878 25.075706 178.456190 -86.669204 -178.698551 -0.689383 1.300972 8.051559 -3.643910 -1.125569 1.077989 79.514716 -9.640308 3.507181 -174.697780 83.790039 -175.113963 -0.000000 -0.000000 0.000000 -0.377782 0.925684 -18.681298 -0.777328 0.599297 26.263768 -0.000000 -0.000000 -0.000000 -9.200836 0.968958 -15.033407 0.030161 -0.812339 17.174671 
6.273319 1.221181 1.467737 -4.052249 -10.038621 -1.091930 -0.000000 -0.000000 0.000000 -0.261567 0.547901 4.196387 -0.623983 1.258207 8.006507 0.000000 0.000000 0.000000 -0.680129 1.232658 7.869522 0.838164 -3.040451 3.126982 -0.657461 1.255879 8.083232 3.092679 1.166643 0.439896 -75.286093 -8.692871 25.008127 177.840948 -86.662243 -178.084059 -0.677903 1.309355 8.032003 -3.652408 -1.159454 1.060279 79.415130 -9.642349 3.576975 -174.881920 83.649893 -175.278980 -0.000000 -0.000000 0.000000 -0.431477 1.007112 -18.699989 -0.790594 0.606534 26.363799 -0.000000 -0.000000 -0.000000 -9.298394 0.898303 -15.083955 0.035948 -0.800478 17.282396 
